<mxfile host="app.diagrams.net" modified="2022-05-03T11:02:48.148Z" agent="5.0 (X11)" etag="bs-SiGGLWKWtRW1xzEoY" version="17.4.5" type="github">
  <diagram name="Page-1" id="e3a06f82-3646-2815-327d-82caf3d4e204">
    <mxGraphModel dx="1497" dy="863" grid="1" gridSize="10" guides="1" tooltips="1" connect="1" arrows="1" fold="1" page="1" pageScale="1.5" pageWidth="1169" pageHeight="826" background="none" math="0" shadow="0">
      <root>
        <mxCell id="0" style=";html=1;" />
        <mxCell id="1" style=";html=1;" parent="0" />
        <mxCell id="2E2W87fR3VaL_z9IKCfM-47" value="" style="group" vertex="1" connectable="0" parent="1">
          <mxGeometry x="170" y="443.63" width="350" height="236.37" as="geometry" />
        </mxCell>
        <mxCell id="2E2W87fR3VaL_z9IKCfM-15" value="Corporate Guest Network" style="whiteSpace=wrap;html=1;fillColor=#b0e3e6;fontSize=14;strokeColor=#0e8088;verticalAlign=top;fontStyle=1;fontColor=#0e8088;" vertex="1" parent="2E2W87fR3VaL_z9IKCfM-47">
          <mxGeometry width="350" height="236.37" as="geometry" />
        </mxCell>
        <mxCell id="2E2W87fR3VaL_z9IKCfM-18" value="Wifi Only" style="text;html=1;strokeColor=none;fillColor=none;align=right;verticalAlign=middle;whiteSpace=wrap;rounded=0;fontColor=#0e8088;" vertex="1" parent="2E2W87fR3VaL_z9IKCfM-47">
          <mxGeometry x="290" y="206.37" width="60" height="30" as="geometry" />
        </mxCell>
        <mxCell id="2E2W87fR3VaL_z9IKCfM-21" value="Guest" style="verticalLabelPosition=bottom;aspect=fixed;html=1;verticalAlign=top;strokeColor=none;shape=mxgraph.citrix.laptop_2;fillColor=#66B2FF;gradientColor=#0066CC;fontSize=14;" vertex="1" parent="2E2W87fR3VaL_z9IKCfM-47">
          <mxGeometry x="79.99999999999989" y="109.87" width="116" height="86.5" as="geometry" />
        </mxCell>
        <mxCell id="2E2W87fR3VaL_z9IKCfM-20" value="" style="verticalLabelPosition=bottom;sketch=0;aspect=fixed;html=1;verticalAlign=top;strokeColor=none;align=center;outlineConnect=0;shape=mxgraph.citrix.cell_phone;fontColor=#d6b656;" vertex="1" parent="2E2W87fR3VaL_z9IKCfM-47">
          <mxGeometry x="80" y="36.370000000000005" width="25" height="60" as="geometry" />
        </mxCell>
        <mxCell id="2E2W87fR3VaL_z9IKCfM-45" value="" style="group;fontColor=#d6b656;aspect=fixed;" vertex="1" connectable="0" parent="1">
          <mxGeometry x="170" y="80" width="350" height="363.63" as="geometry" />
        </mxCell>
        <mxCell id="6a7d8f32e03d9370-57" value="Corporate LAN Network" style="whiteSpace=wrap;html=1;fillColor=#fff2cc;fontSize=14;strokeColor=#d6b656;verticalAlign=top;fontColor=#d6b656;fontStyle=1" parent="2E2W87fR3VaL_z9IKCfM-45" vertex="1">
          <mxGeometry width="350" height="363.4028732042473" as="geometry" />
        </mxCell>
        <mxCell id="6a7d8f32e03d9370-31" value="" style="verticalLabelPosition=bottom;aspect=fixed;html=1;verticalAlign=top;strokeColor=none;shape=mxgraph.citrix.site;fillColor=#66B2FF;gradientColor=#0066CC;fontSize=14;" parent="2E2W87fR3VaL_z9IKCfM-45" vertex="1">
          <mxGeometry y="271.8707745159275" width="97.21026858213617" height="91.75922548407246" as="geometry" />
        </mxCell>
        <mxCell id="2E2W87fR3VaL_z9IKCfM-19" value="Wired and Wifi" style="text;html=1;strokeColor=none;fillColor=none;align=right;verticalAlign=middle;whiteSpace=wrap;rounded=0;fontColor=#d6b656;" vertex="1" parent="2E2W87fR3VaL_z9IKCfM-45">
          <mxGeometry x="238.63636363636365" y="329.31241875" width="111.36363636363636" height="34.0903125" as="geometry" />
        </mxCell>
        <mxCell id="6a7d8f32e03d9370-2" value="Client" style="verticalLabelPosition=bottom;aspect=fixed;html=1;verticalAlign=top;strokeColor=none;shape=mxgraph.citrix.laptop_2;fillColor=#66B2FF;gradientColor=#0066CC;fontSize=14;" parent="2E2W87fR3VaL_z9IKCfM-45" vertex="1">
          <mxGeometry x="193.18181818181804" y="215.90531249999998" width="131.815875" height="98.293734375" as="geometry" />
        </mxCell>
        <mxCell id="6a7d8f32e03d9370-4" value="Client" style="verticalLabelPosition=bottom;aspect=fixed;html=1;verticalAlign=top;strokeColor=none;shape=mxgraph.citrix.desktop;fillColor=#66B2FF;gradientColor=#0066CC;fontSize=14;" parent="2E2W87fR3VaL_z9IKCfM-45" vertex="1">
          <mxGeometry x="49.99999999999994" y="70.00000000000006" width="89" height="98" as="geometry" />
        </mxCell>
        <mxCell id="6a7d8f32e03d9370-5" value="Client" style="verticalLabelPosition=bottom;aspect=fixed;html=1;verticalAlign=top;strokeColor=none;shape=mxgraph.citrix.desktop;fillColor=#66B2FF;gradientColor=#0066CC;fontSize=14;" parent="2E2W87fR3VaL_z9IKCfM-45" vertex="1">
          <mxGeometry x="200.00000000000006" y="40.00000000000006" width="89" height="98" as="geometry" />
        </mxCell>
        <mxCell id="2E2W87fR3VaL_z9IKCfM-44" value="" style="group;aspect=fixed;" vertex="1" connectable="0" parent="1">
          <mxGeometry x="1000" y="80" width="400" height="256.88" as="geometry" />
        </mxCell>
        <mxCell id="6a7d8f32e03d9370-61" value="Outside Networks" style="whiteSpace=wrap;html=1;fillColor=#f8cecc;fontSize=14;strokeColor=#b85450;verticalAlign=top;fontColor=#b85450;fontStyle=1" parent="2E2W87fR3VaL_z9IKCfM-44" vertex="1">
          <mxGeometry width="400" height="256.88" as="geometry" />
        </mxCell>
        <mxCell id="2E2W87fR3VaL_z9IKCfM-11" value="VPN Access" style="text;html=1;strokeColor=none;fillColor=none;align=center;verticalAlign=middle;whiteSpace=wrap;rounded=0;fontColor=#b85450;" vertex="1" parent="2E2W87fR3VaL_z9IKCfM-44">
          <mxGeometry y="229.35714285714283" width="55.04587155963303" height="27.52285714285714" as="geometry" />
        </mxCell>
        <mxCell id="2E2W87fR3VaL_z9IKCfM-32" value="" style="group" vertex="1" connectable="0" parent="1">
          <mxGeometry x="600" y="80" width="320" height="600" as="geometry" />
        </mxCell>
        <mxCell id="2E2W87fR3VaL_z9IKCfM-10" value="Rack cabinets" style="whiteSpace=wrap;html=1;fillColor=#dae8fc;fontSize=14;strokeColor=#6c8ebf;verticalAlign=top;fontColor=#6c8ebf;fontStyle=1" vertex="1" parent="2E2W87fR3VaL_z9IKCfM-32">
          <mxGeometry width="320" height="600" as="geometry" />
        </mxCell>
        <mxCell id="2E2W87fR3VaL_z9IKCfM-31" value="" style="image;html=1;image=img/lib/clip_art/computers/Server_Rack_128x128.png;fontColor=#d6b656;" vertex="1" parent="2E2W87fR3VaL_z9IKCfM-32">
          <mxGeometry width="80" height="80" as="geometry" />
        </mxCell>
        <mxCell id="2E2W87fR3VaL_z9IKCfM-35" value="" style="verticalLabelPosition=bottom;html=1;verticalAlign=top;align=center;strokeColor=none;fillColor=#00BEF2;shape=mxgraph.azure.virtual_machine;fontColor=#d6b656;" vertex="1" parent="2E2W87fR3VaL_z9IKCfM-32">
          <mxGeometry x="60" y="102" width="50" height="40" as="geometry" />
        </mxCell>
        <mxCell id="2E2W87fR3VaL_z9IKCfM-40" value="" style="verticalLabelPosition=bottom;html=1;verticalAlign=top;align=center;strokeColor=none;fillColor=#00BEF2;shape=mxgraph.azure.virtual_machine;fontColor=#d6b656;" vertex="1" parent="2E2W87fR3VaL_z9IKCfM-32">
          <mxGeometry x="135" y="102" width="50" height="40" as="geometry" />
        </mxCell>
        <mxCell id="2E2W87fR3VaL_z9IKCfM-41" value="" style="verticalLabelPosition=bottom;html=1;verticalAlign=top;align=center;strokeColor=none;fillColor=#00BEF2;shape=mxgraph.azure.virtual_machine;fontColor=#d6b656;" vertex="1" parent="2E2W87fR3VaL_z9IKCfM-32">
          <mxGeometry x="210" y="102" width="50" height="40" as="geometry" />
        </mxCell>
        <mxCell id="2E2W87fR3VaL_z9IKCfM-43" value="" style="verticalLabelPosition=bottom;html=1;verticalAlign=top;align=center;strokeColor=none;fillColor=#00BEF2;shape=mxgraph.azure.server;fontColor=#d6b656;aspect=fixed;" vertex="1" parent="2E2W87fR3VaL_z9IKCfM-32">
          <mxGeometry x="60" y="150" width="200" height="60" as="geometry" />
        </mxCell>
        <mxCell id="2E2W87fR3VaL_z9IKCfM-30" value="" style="group;aspect=fixed;" vertex="1" connectable="0" parent="1">
          <mxGeometry x="1000" y="413.33" width="400" height="266.67" as="geometry" />
        </mxCell>
        <mxCell id="6a7d8f32e03d9370-60" value="Enterprise cloud (Amazon)" style="whiteSpace=wrap;html=1;fillColor=#ffe6cc;fontSize=14;strokeColor=#d79b00;verticalAlign=top;fontColor=#FF7800;fontStyle=1" parent="2E2W87fR3VaL_z9IKCfM-30" vertex="1">
          <mxGeometry width="400" height="266.67" as="geometry" />
        </mxCell>
        <mxCell id="2E2W87fR3VaL_z9IKCfM-6" value="" style="outlineConnect=0;dashed=0;verticalLabelPosition=bottom;verticalAlign=top;align=center;html=1;shape=mxgraph.aws3.virtual_private_cloud;fillColor=#F58534;gradientColor=none;" vertex="1" parent="2E2W87fR3VaL_z9IKCfM-30">
          <mxGeometry x="325.87412587412587" y="216.3197202797203" width="74.12587412587412" height="50.35027972027972" as="geometry" />
        </mxCell>
        <mxCell id="2E2W87fR3VaL_z9IKCfM-7" value="" style="outlineConnect=0;dashed=0;verticalLabelPosition=bottom;verticalAlign=top;align=center;html=1;shape=mxgraph.aws3.cloud_2;fillColor=#F58534;gradientColor=none;fontColor=#FF7800;" vertex="1" parent="2E2W87fR3VaL_z9IKCfM-30">
          <mxGeometry y="196.73905594405596" width="69.93006993006993" height="69.93094405594407" as="geometry" />
        </mxCell>
        <mxCell id="2E2W87fR3VaL_z9IKCfM-14" value="Gateway" style="outlineConnect=0;dashed=0;verticalLabelPosition=bottom;verticalAlign=top;align=center;html=1;shape=mxgraph.aws3.vpn_gateway;fillColor=#F58534;gradientColor=none;fontColor=#ff7800;" vertex="1" parent="2E2W87fR3VaL_z9IKCfM-30">
          <mxGeometry width="64.33566433566433" height="67.1337062937063" as="geometry" />
        </mxCell>
        <mxCell id="6a7d8f32e03d9370-25" value="Secure Server" style="verticalLabelPosition=bottom;aspect=fixed;html=1;verticalAlign=top;strokeColor=none;shape=mxgraph.citrix.proxy_server;fillColor=#66B2FF;gradientColor=#0066CC;fontSize=14;" parent="2E2W87fR3VaL_z9IKCfM-30" vertex="1">
          <mxGeometry x="226.57342657342656" y="61.53923076923078" width="71.32867132867132" height="83.9160839160839" as="geometry" />
        </mxCell>
        <mxCell id="6a7d8f32e03d9370-30" value="Web service" style="verticalLabelPosition=bottom;aspect=fixed;html=1;verticalAlign=top;strokeColor=none;shape=mxgraph.citrix.web_service;fillColor=#66B2FF;gradientColor=#0066CC;fontSize=14;" parent="2E2W87fR3VaL_z9IKCfM-30" vertex="1">
          <mxGeometry x="102.0979020979021" y="117.48398601398603" width="58.74125874125874" height="55.94405594405594" as="geometry" />
        </mxCell>
        <mxCell id="2E2W87fR3VaL_z9IKCfM-46" value="Access from corporate office only" style="text;html=1;strokeColor=none;fillColor=none;align=center;verticalAlign=middle;whiteSpace=wrap;rounded=0;fontColor=#ff7800;" vertex="1" parent="2E2W87fR3VaL_z9IKCfM-30">
          <mxGeometry x="102.0979020979021" y="13.053776223776225" width="195.80419580419579" height="27.972377622377625" as="geometry" />
        </mxCell>
        <mxCell id="6a7d8f32e03d9370-35" style="edgeStyle=none;rounded=0;html=1;startSize=10;endSize=10;jettySize=auto;orthogonalLoop=1;fontSize=14;endArrow=classic;endFill=1;strokeWidth=2;entryX=0;entryY=0.25;entryDx=0;entryDy=0;strokeColor=#d6b656;startArrow=none;startFill=0;" parent="1" source="6a7d8f32e03d9370-2" target="2E2W87fR3VaL_z9IKCfM-17" edge="1">
          <mxGeometry relative="1" as="geometry">
            <mxPoint x="637" y="693.320415879017" as="targetPoint" />
          </mxGeometry>
        </mxCell>
        <mxCell id="6a7d8f32e03d9370-33" style="edgeStyle=none;rounded=0;html=1;startSize=10;endSize=10;jettySize=auto;orthogonalLoop=1;fontSize=14;endArrow=classic;endFill=1;strokeWidth=2;entryX=0;entryY=0.25;entryDx=0;entryDy=0;strokeColor=#d6b656;startArrow=none;startFill=0;" parent="1" source="6a7d8f32e03d9370-4" target="2E2W87fR3VaL_z9IKCfM-16" edge="1">
          <mxGeometry relative="1" as="geometry">
            <mxPoint x="637" y="365.14650283553874" as="targetPoint" />
          </mxGeometry>
        </mxCell>
        <mxCell id="6a7d8f32e03d9370-32" style="edgeStyle=none;rounded=0;html=1;startSize=10;endSize=10;jettySize=auto;orthogonalLoop=1;fontSize=14;endArrow=classic;endFill=1;strokeWidth=2;entryX=0;entryY=0;entryDx=0;entryDy=0;strokeColor=#d6b656;startArrow=none;startFill=0;" parent="1" source="6a7d8f32e03d9370-5" target="2E2W87fR3VaL_z9IKCfM-16" edge="1">
          <mxGeometry relative="1" as="geometry">
            <mxPoint x="637" y="201.13687150837984" as="targetPoint" />
          </mxGeometry>
        </mxCell>
        <mxCell id="6a7d8f32e03d9370-56" style="edgeStyle=none;rounded=0;html=1;startSize=10;endSize=10;jettySize=auto;orthogonalLoop=1;fontSize=14;endArrow=classic;endFill=1;strokeWidth=2;exitX=0;exitY=0.5;exitDx=0;exitDy=0;strokeColor=#FFB570;entryX=0;entryY=0.5;entryDx=0;entryDy=0;entryPerimeter=0;" parent="1" source="2E2W87fR3VaL_z9IKCfM-2" target="2E2W87fR3VaL_z9IKCfM-14" edge="1">
          <mxGeometry relative="1" as="geometry">
            <mxPoint x="999.6666127989656" y="476.5" as="sourcePoint" />
          </mxGeometry>
        </mxCell>
        <mxCell id="6a7d8f32e03d9370-53" style="edgeStyle=none;rounded=0;html=1;jettySize=auto;orthogonalLoop=1;fontSize=14;endArrow=none;endFill=0;strokeWidth=2;exitX=0.75;exitY=0;exitDx=0;exitDy=0;strokeColor=#b85450;startArrow=classic;startFill=1;" parent="1" source="2E2W87fR3VaL_z9IKCfM-3" target="6a7d8f32e03d9370-29" edge="1">
          <mxGeometry relative="1" as="geometry">
            <mxPoint x="1221" y="508" as="sourcePoint" />
          </mxGeometry>
        </mxCell>
        <mxCell id="6a7d8f32e03d9370-54" style="edgeStyle=none;rounded=0;html=1;startSize=10;endSize=10;jettySize=auto;orthogonalLoop=1;fontSize=14;endArrow=none;endFill=0;strokeWidth=2;exitX=1;exitY=0;exitDx=0;exitDy=0;strokeColor=#b85450;startArrow=classic;startFill=1;" parent="1" source="2E2W87fR3VaL_z9IKCfM-3" target="6a7d8f32e03d9370-28" edge="1">
          <mxGeometry relative="1" as="geometry">
            <mxPoint x="1228.1986656782801" y="508" as="sourcePoint" />
          </mxGeometry>
        </mxCell>
        <mxCell id="6a7d8f32e03d9370-55" style="edgeStyle=none;rounded=0;html=1;startSize=10;endSize=10;jettySize=auto;orthogonalLoop=1;fontSize=14;endArrow=none;endFill=0;strokeWidth=2;exitX=0;exitY=0;exitDx=0;exitDy=0;strokeColor=#b85450;startArrow=classic;startFill=1;" parent="1" source="2E2W87fR3VaL_z9IKCfM-2" target="6a7d8f32e03d9370-27" edge="1">
          <mxGeometry relative="1" as="geometry">
            <mxPoint x="1237.7556762092795" y="508" as="sourcePoint" />
          </mxGeometry>
        </mxCell>
        <mxCell id="6a7d8f32e03d9370-27" value="Employee" style="verticalLabelPosition=top;aspect=fixed;html=1;verticalAlign=bottom;strokeColor=none;shape=mxgraph.citrix.thin_client;fillColor=#66B2FF;gradientColor=#0066CC;fontSize=14;labelPosition=center;align=center;" parent="1" vertex="1">
          <mxGeometry x="1240" y="221.75" width="71" height="71" as="geometry" />
        </mxCell>
        <mxCell id="6a7d8f32e03d9370-28" value="Employee" style="verticalLabelPosition=top;aspect=fixed;html=1;verticalAlign=bottom;strokeColor=none;shape=mxgraph.citrix.thin_client;fillColor=#66B2FF;gradientColor=#0066CC;fontSize=14;labelPosition=center;align=center;" parent="1" vertex="1">
          <mxGeometry x="1140" y="156" width="71" height="71" as="geometry" />
        </mxCell>
        <mxCell id="6a7d8f32e03d9370-29" value="Employee" style="verticalLabelPosition=top;aspect=fixed;html=1;verticalAlign=bottom;strokeColor=none;shape=mxgraph.citrix.thin_client;fillColor=#66B2FF;gradientColor=#0066CC;fontSize=14;labelPosition=center;align=center;" parent="1" vertex="1">
          <mxGeometry x="1040" y="120" width="71" height="71" as="geometry" />
        </mxCell>
        <mxCell id="6a7d8f32e03d9370-62" value="Symmetryk Network/system Architecture" style="text;strokeColor=none;fillColor=none;html=1;fontSize=24;fontStyle=1;verticalAlign=middle;align=center;" parent="1" vertex="1">
          <mxGeometry x="170" y="30" width="1230" height="40" as="geometry" />
        </mxCell>
        <mxCell id="2E2W87fR3VaL_z9IKCfM-2" value="" style="image;html=1;image=img/lib/clip_art/networking/Router_Icon_128x128.png" vertex="1" parent="1">
          <mxGeometry x="840" y="480" width="80" height="80" as="geometry" />
        </mxCell>
        <mxCell id="2E2W87fR3VaL_z9IKCfM-3" value="" style="aspect=fixed;perimeter=ellipsePerimeter;html=1;align=center;shadow=0;dashed=0;spacingTop=3;image;image=img/lib/active_directory/firewall.svg;" vertex="1" parent="1">
          <mxGeometry x="772.9" y="451.25" width="67.1" height="110" as="geometry" />
        </mxCell>
        <mxCell id="2E2W87fR3VaL_z9IKCfM-8" value="" style="aspect=fixed;perimeter=ellipsePerimeter;html=1;align=center;shadow=0;dashed=0;spacingTop=3;image;image=img/lib/active_directory/internet_globe.svg;fontColor=#FF7800;" vertex="1" parent="1">
          <mxGeometry x="920" y="560" width="87" height="87" as="geometry" />
        </mxCell>
        <mxCell id="2E2W87fR3VaL_z9IKCfM-9" value="" style="html=1;outlineConnect=0;fillColor=#CCCCCC;strokeColor=#6881B3;gradientColor=none;gradientDirection=north;strokeWidth=2;shape=mxgraph.networks.comm_link_edge;html=1;rounded=0;fontColor=#FF7800;entryX=1;entryY=0.5;entryDx=0;entryDy=0;exitX=0.5;exitY=0;exitDx=0;exitDy=0;" edge="1" parent="1" source="2E2W87fR3VaL_z9IKCfM-8" target="2E2W87fR3VaL_z9IKCfM-2">
          <mxGeometry width="100" height="100" relative="1" as="geometry">
            <mxPoint x="740" y="860" as="sourcePoint" />
            <mxPoint x="840" y="760" as="targetPoint" />
          </mxGeometry>
        </mxCell>
        <mxCell id="2E2W87fR3VaL_z9IKCfM-16" value="" style="image;html=1;image=img/lib/clip_art/networking/Switch_128x128.png;fontColor=#d6b656;" vertex="1" parent="1">
          <mxGeometry x="630" y="340" width="130" height="91" as="geometry" />
        </mxCell>
        <mxCell id="2E2W87fR3VaL_z9IKCfM-17" value="" style="image;html=1;image=img/lib/clip_art/networking/Wireless_Router_128x128.png;fontColor=#d6b656;" vertex="1" parent="1">
          <mxGeometry x="655" y="560" width="80" height="80" as="geometry" />
        </mxCell>
        <mxCell id="2E2W87fR3VaL_z9IKCfM-22" style="edgeStyle=none;rounded=0;html=1;startSize=10;endSize=10;jettySize=auto;orthogonalLoop=1;fontSize=14;endArrow=classic;endFill=1;strokeWidth=2;strokeColor=#0e8088;startArrow=none;startFill=0;entryX=0;entryY=0.5;entryDx=0;entryDy=0;" edge="1" parent="1" source="2E2W87fR3VaL_z9IKCfM-20" target="2E2W87fR3VaL_z9IKCfM-17">
          <mxGeometry relative="1" as="geometry">
            <mxPoint x="344.78491335372064" y="424.25" as="sourcePoint" />
            <mxPoint x="590" y="740" as="targetPoint" />
          </mxGeometry>
        </mxCell>
        <mxCell id="2E2W87fR3VaL_z9IKCfM-23" style="edgeStyle=none;rounded=0;html=1;startSize=10;endSize=10;jettySize=auto;orthogonalLoop=1;fontSize=14;endArrow=classic;endFill=1;strokeWidth=2;strokeColor=#0e8088;startArrow=none;startFill=0;entryX=0;entryY=0.75;entryDx=0;entryDy=0;exitX=1.009;exitY=0.694;exitDx=0;exitDy=0;exitPerimeter=0;" edge="1" parent="1" source="2E2W87fR3VaL_z9IKCfM-21" target="2E2W87fR3VaL_z9IKCfM-17">
          <mxGeometry relative="1" as="geometry">
            <mxPoint x="415" y="675.8584337349398" as="sourcePoint" />
            <mxPoint x="610" y="611.25" as="targetPoint" />
          </mxGeometry>
        </mxCell>
        <mxCell id="2E2W87fR3VaL_z9IKCfM-24" style="edgeStyle=none;rounded=0;html=1;jettySize=auto;orthogonalLoop=1;fontSize=14;endArrow=classic;endFill=1;strokeWidth=2;entryX=0.5;entryY=0;entryDx=0;entryDy=0;strokeColor=#000000;startArrow=none;startFill=0;exitX=0.5;exitY=1;exitDx=0;exitDy=0;shape=link;" edge="1" parent="1" source="2E2W87fR3VaL_z9IKCfM-16" target="2E2W87fR3VaL_z9IKCfM-17">
          <mxGeometry relative="1" as="geometry">
            <mxPoint x="346" y="388.20919881305645" as="sourcePoint" />
            <mxPoint x="625" y="591.25" as="targetPoint" />
          </mxGeometry>
        </mxCell>
        <mxCell id="2E2W87fR3VaL_z9IKCfM-25" value="" style="edgeStyle=segmentEdgeStyle;endArrow=classic;html=1;rounded=0;fontColor=#d6b656;strokeColor=#000000;shape=link;exitX=0.553;exitY=0.08;exitDx=0;exitDy=0;exitPerimeter=0;" edge="1" parent="1" source="2E2W87fR3VaL_z9IKCfM-3" target="2E2W87fR3VaL_z9IKCfM-16">
          <mxGeometry width="50" height="50" relative="1" as="geometry">
            <mxPoint x="870" y="490" as="sourcePoint" />
            <mxPoint x="920" y="440" as="targetPoint" />
            <Array as="points">
              <mxPoint x="810" y="390" />
            </Array>
          </mxGeometry>
        </mxCell>
      </root>
    </mxGraphModel>
  </diagram>
</mxfile>
